<?xml version="1.0" standalone="no"?><svg xmlns:xlink="http://www.w3.org/1999/xlink" xmlns="http://www.w3.org/2000/svg" viewBox="0 0 1000 647.0727898367771" preserveAspectRatio="xMaxYMax slice"><g transform="scale(1.6720227127565301)"><rect x="0" y="0" width="598.090909090909" height="387" fill="#e3eef2"/><path d="M 8.8 26.39 A 17.59 17.59 0 0 1  26.39 8.8 L 8.8 26.39 A 17.59 17.59 0 0 0 26.39 8.8" fill="#2b851f"/><path d="M 79.16 8.8 A 17.59 17.59 0 0 1  96.75 26.39 L 79.16 8.8 A 17.59 17.59 0 0 0 96.75 26.39" fill="#ea6a89"/><path d="M 114.34 26.39 A 17.59 17.59 0 0 1  131.93 8.8 L 114.34 26.39 A 17.59 17.59 0 0 0 131.93 8.8" fill="#bbd7c4"/><path d="M 255.07 26.39 A 17.59 17.59 0 0 1  272.65999999999997 8.8 L 255.07 26.39 A 17.59 17.59 0 0 0 272.65999999999997 8.8" fill="#e6b4c4"/><path d="M 360.61 8.8 A 17.59 17.59 0 0 1  378.2 26.39 L 360.61 8.8 A 17.59 17.59 0 0 0 378.2 26.39" fill="#eb6484"/><path d="M 79.16 43.98 A 17.59 17.59 0 0 1  96.75 61.56999999999999 L 79.16 43.98 A 17.59 17.59 0 0 0 96.75 61.56999999999999" fill="#a8cdae"/><path d="M 114.34 43.98 A 17.59 17.59 0 0 1  131.93 61.56999999999999 L 114.34 43.98 A 17.59 17.59 0 0 0 131.93 61.56999999999999" fill="#e891a7"/><path d="M 255.07 61.56999999999999 A 17.59 17.59 0 0 1  272.65999999999997 43.98 L 255.07 61.56999999999999 A 17.59 17.59 0 0 0 272.65999999999997 43.98" fill="#ea718e"/><path d="M 290.25 43.98 A 17.59 17.59 0 0 1  307.84 61.56999999999999 L 290.25 43.98 A 17.59 17.59 0 0 0 307.84 61.56999999999999" fill="#9ec7a3"/><path d="M 360.61 43.98 A 17.59 17.59 0 0 1  378.2 61.56999999999999 L 360.61 43.98 A 17.59 17.59 0 0 0 378.2 61.56999999999999" fill="#59a054"/><path d="M 466.16 61.56999999999999 A 17.59 17.59 0 0 1  483.75 43.98 L 466.16 61.56999999999999 A 17.59 17.59 0 0 0 483.75 43.98" fill="#adcfb4"/><path d="M 8.8 79.16 A 17.59 17.59 0 0 1  26.39 96.75 L 8.8 79.16 A 17.59 17.59 0 0 0 26.39 96.75" fill="#e892a8"/><path d="M 149.52 96.75 A 17.59 17.59 0 0 1  167.11 79.16 L 149.52 96.75 A 17.59 17.59 0 0 0 167.11 79.16" fill="#3b8f31"/><path d="M 184.7 79.16 A 17.59 17.59 0 0 1  202.29 96.75 L 184.7 79.16 A 17.59 17.59 0 0 0 202.29 96.75" fill="#bad6c3"/><rect x="255.06818181818178" y="79.1590909090909" width="17.59090909090909" height="17.59090909090909" fill="#e3eef2"/><path d="M 430.98 96.75 A 17.59 17.59 0 0 1  448.57 79.16 L 430.98 96.75 A 17.59 17.59 0 0 0 448.57 79.16" fill="#e3e6ec"/><path d="M 501.34 96.75 A 17.59 17.59 0 0 1  518.93 79.16 L 501.34 96.75 A 17.59 17.59 0 0 0 518.93 79.16" fill="#589f53"/><path d="M 184.7 131.93 A 17.59 17.59 0 0 1  202.29 114.34 L 184.7 131.93 A 17.59 17.59 0 0 0 202.29 114.34" fill="#ea718e"/><rect x="255.06818181818178" y="114.34090909090908" width="17.59090909090909" height="17.59090909090909" fill="#e3eef2"/><path d="M 290.25 131.93 A 17.59 17.59 0 0 1  307.84 114.34 L 290.25 131.93 A 17.59 17.59 0 0 0 307.84 114.34" fill="#e5c4d0"/><path d="M 430.98 114.34 A 17.59 17.59 0 0 1  448.57 131.93 L 430.98 114.34 A 17.59 17.59 0 0 0 448.57 131.93" fill="#eb6081"/><path d="M 466.16 114.34 A 17.59 17.59 0 0 1  483.75 131.93 L 466.16 114.34 A 17.59 17.59 0 0 0 483.75 131.93" fill="#62a55f"/><path d="M 43.98 167.11 A 17.59 17.59 0 0 1  61.56999999999999 149.52 L 43.98 167.11 A 17.59 17.59 0 0 0 61.56999999999999 149.52" fill="#5ea25a"/><path d="M 79.16 167.11 A 17.59 17.59 0 0 1  96.75 149.52 L 79.16 167.11 A 17.59 17.59 0 0 0 96.75 149.52" fill="#d7e7e4"/><path d="M 219.89 149.52 A 17.59 17.59 0 0 1  237.48 167.11 L 219.89 149.52 A 17.59 17.59 0 0 0 237.48 167.11" fill="#67a865"/><path d="M 255.07 149.52 A 17.59 17.59 0 0 1  272.65999999999997 167.11 L 255.07 149.52 A 17.59 17.59 0 0 0 272.65999999999997 167.11" fill="#adcfb4"/><path d="M 466.16 149.52 A 17.59 17.59 0 0 1  483.75 167.11 L 466.16 149.52 A 17.59 17.59 0 0 0 483.75 167.11" fill="#2f8824"/><rect x="501.34090909090907" y="149.52272727272725" width="17.59090909090909" height="17.59090909090909" fill="#e3eef2"/><path d="M 501.34 149.52 A 8.8 8.8 0 0 1  510.14 158.32000000000002 L 501.34 149.52 A 8.8 8.8 0 0 0 510.14 158.32000000000002" fill="#348b2a"/><path d="M 510.14 149.52 A 8.8 8.8 0 0 1  518.9399999999999 158.32000000000002 L 510.14 149.52 A 8.8 8.8 0 0 0 518.9399999999999 158.32000000000002" fill="#549d4e"/><path d="M 536.52 167.11 A 17.59 17.59 0 0 1  554.11 149.52 L 536.52 167.11 A 17.59 17.59 0 0 0 554.11 149.52" fill="#b4d4bd"/><path d="M 8.8 184.7 A 17.59 17.59 0 0 1  26.39 202.29 L 8.8 184.7 A 17.59 17.59 0 0 0 26.39 202.29" fill="#e9829c"/><path d="M 79.16 184.7 A 17.59 17.59 0 0 1  96.75 202.29 L 79.16 184.7 A 17.59 17.59 0 0 0 96.75 202.29" fill="#e6b2c2"/><path d="M 114.34 184.7 A 17.59 17.59 0 0 1  131.93 202.29 L 114.34 184.7 A 17.59 17.59 0 0 0 131.93 202.29" fill="#e5c4d0"/><path d="M 325.43 202.29 A 17.59 17.59 0 0 1  343.02 184.7 L 325.43 202.29 A 17.59 17.59 0 0 0 343.02 184.7" fill="#e4dae2"/><path d="M 466.16 202.29 A 17.59 17.59 0 0 1  483.75 184.7 L 466.16 202.29 A 17.59 17.59 0 0 0 483.75 184.7" fill="#368c2d"/><path d="M 501.34 202.29 A 17.59 17.59 0 0 1  518.93 184.7 L 501.34 202.29 A 17.59 17.59 0 0 0 518.93 184.7" fill="#e4dfe6"/><path d="M 536.52 184.7 A 17.59 17.59 0 0 1  554.11 202.29 L 536.52 184.7 A 17.59 17.59 0 0 0 554.11 202.29" fill="#ea728e"/><path d="M 571.7 202.29 A 17.59 17.59 0 0 1  589.2900000000001 184.7 L 571.7 202.29 A 17.59 17.59 0 0 0 589.2900000000001 184.7" fill="#4d9946"/><path d="M 79.16 237.48 A 17.59 17.59 0 0 1  96.75 219.89 L 79.16 237.48 A 17.59 17.59 0 0 0 96.75 219.89" fill="#eb6282"/><path d="M 149.52 237.48 A 17.59 17.59 0 0 1  167.11 219.89 L 149.52 237.48 A 17.59 17.59 0 0 0 167.11 219.89" fill="#e890a6"/><rect x="184.70454545454544" y="219.8863636363636" width="17.59090909090909" height="17.59090909090909" fill="#e3eef2"/><path d="M 193.5 219.89 A 8.8 8.8 0 0 1  202.3 228.69 L 193.5 219.89 A 8.8 8.8 0 0 0 202.3 228.69" fill="#e4e1e8"/><path d="M 325.43 219.89 A 17.59 17.59 0 0 1  343.02 237.48 L 325.43 219.89 A 17.59 17.59 0 0 0 343.02 237.48" fill="#6aa967"/><path d="M 360.61 237.48 A 17.59 17.59 0 0 1  378.2 219.89 L 360.61 237.48 A 17.59 17.59 0 0 0 378.2 219.89" fill="#e3e9ee"/><rect x="571.7045454545454" y="219.8863636363636" width="17.59090909090909" height="17.59090909090909" fill="#e3eef2"/><path d="M 571.7 228.68 A 8.8 8.8 0 0 1  580.5 237.48000000000002 L 571.7 228.68 A 8.8 8.8 0 0 0 580.5 237.48000000000002" fill="#ea6987"/><path d="M 43.98 255.07 A 17.59 17.59 0 0 1  61.56999999999999 272.65999999999997 L 43.98 255.07 A 17.59 17.59 0 0 0 61.56999999999999 272.65999999999997" fill="#72ae71"/><path d="M 325.43 255.07 A 17.59 17.59 0 0 1  343.02 272.65999999999997 L 325.43 255.07 A 17.59 17.59 0 0 0 343.02 272.65999999999997" fill="#e6b0c0"/><rect x="501.34090909090907" y="255.06818181818178" width="17.59090909090909" height="17.59090909090909" fill="#e3eef2"/><path d="M 184.7 307.84 A 17.59 17.59 0 0 1  202.29 290.25 L 184.7 307.84 A 17.59 17.59 0 0 0 202.29 290.25" fill="#bbd7c4"/><rect x="255.06818181818178" y="290.25" width="17.59090909090909" height="17.59090909090909" fill="#e3eef2"/><path d="M 255.07 307.85 A 8.8 8.8 0 0 1  263.87 299.05 L 255.07 307.85 A 8.8 8.8 0 0 0 263.87 299.05" fill="#e4dae2"/><rect x="290.25" y="290.25" width="17.59090909090909" height="17.59090909090909" fill="#e3eef2"/><path d="M 290.25 290.25 A 8.8 8.8 0 0 1  299.05 299.05 L 290.25 290.25 A 8.8 8.8 0 0 0 299.05 299.05" fill="#e893a9"/><path d="M 299.05 299.05 A 8.8 8.8 0 0 1  307.85 290.25 L 299.05 299.05 A 8.8 8.8 0 0 0 307.85 290.25" fill="#a4caaa"/><path d="M 299.05 307.85 A 8.8 8.8 0 0 1  307.85 299.05 L 299.05 307.85 A 8.8 8.8 0 0 0 307.85 299.05" fill="#8bbc8d"/><rect x="395.79545454545456" y="290.25" width="17.59090909090909" height="17.59090909090909" fill="#e3eef2"/><path d="M 466.16 307.84 A 17.59 17.59 0 0 1  483.75 290.25 L 466.16 307.84 A 17.59 17.59 0 0 0 483.75 290.25" fill="#328a27"/><path d="M 536.52 290.25 A 17.59 17.59 0 0 1  554.11 307.84 L 536.52 290.25 A 17.59 17.59 0 0 0 554.11 307.84" fill="#e7a2b5"/><path d="M 219.89 325.43 A 17.59 17.59 0 0 1  237.48 343.02 L 219.89 325.43 A 17.59 17.59 0 0 0 237.48 343.02" fill="#e4d5de"/><path d="M 255.07 343.02 A 17.59 17.59 0 0 1  272.65999999999997 325.43 L 255.07 343.02 A 17.59 17.59 0 0 0 272.65999999999997 325.43" fill="#9dc6a2"/><rect x="395.79545454545456" y="325.4318181818182" width="17.59090909090909" height="17.59090909090909" fill="#e3eef2"/><path d="M 395.8 325.43 A 8.8 8.8 0 0 1  404.6 334.23 L 395.8 325.43 A 8.8 8.8 0 0 0 404.6 334.23" fill="#e6b9c8"/><path d="M 395.8 334.23 A 8.8 8.8 0 0 1  404.6 343.03000000000003 L 395.8 334.23 A 8.8 8.8 0 0 0 404.6 343.03000000000003" fill="#e89baf"/><path d="M 466.16 325.43 A 17.59 17.59 0 0 1  483.75 343.02 L 466.16 325.43 A 17.59 17.59 0 0 0 483.75 343.02" fill="#e9859e"/><path d="M 114.34 378.2 A 17.59 17.59 0 0 1  131.93 360.61 L 114.34 378.2 A 17.59 17.59 0 0 0 131.93 360.61" fill="#9ac59f"/><path d="M 149.52 360.61 A 17.59 17.59 0 0 1  167.11 378.2 L 149.52 360.61 A 17.59 17.59 0 0 0 167.11 378.2" fill="#e4e4ea"/><path d="M 184.7 378.2 A 17.59 17.59 0 0 1  202.29 360.61 L 184.7 378.2 A 17.59 17.59 0 0 0 202.29 360.61" fill="#28841c"/><rect x="290.25" y="360.6136363636364" width="17.59090909090909" height="17.59090909090909" fill="#e3eef2"/><path d="M 325.43 360.61 A 17.59 17.59 0 0 1  343.02 378.2 L 325.43 360.61 A 17.59 17.59 0 0 0 343.02 378.2" fill="#e79eb2"/><rect x="360.6136363636364" y="360.6136363636364" width="17.59090909090909" height="17.59090909090909" fill="#e3eef2"/><path d="M 360.61 369.41 A 8.8 8.8 0 0 1  369.41 378.21000000000004 L 360.61 369.41 A 8.8 8.8 0 0 0 369.41 378.21000000000004" fill="#e9819b"/><path d="M 395.8 360.61 A 17.59 17.59 0 0 1  413.39 378.2 L 395.8 360.61 A 17.59 17.59 0 0 0 413.39 378.2" fill="#e894aa"/><rect x="536.5227272727273" y="360.6136363636364" width="17.59090909090909" height="17.59090909090909" fill="#e3eef2"/><path d="M 536.52 360.61 A 8.8 8.8 0 0 1  545.3199999999999 369.41 L 536.52 360.61 A 8.8 8.8 0 0 0 545.3199999999999 369.41" fill="#b9d6c2"/><path d="M 545.32 378.21000000000004 A 8.8 8.8 0 0 1  554.12 369.41 L 545.32 378.21000000000004 A 8.8 8.8 0 0 0 554.12 369.41" fill="#e3e8ed"/></g></svg>